<svg width="100" height="48" viewBox="0 0 100 48" fill="none" xmlns="http://www.w3.org/2000/svg">
<path d="M2.79529 45.3354L10.5187 2.69576L10.5833 2.30856L0 2.58282L0.0484728 4.24453L8.62824 4.01866L0.920991 46.6583L0.840202 47.0455L11.3589 46.7712L11.3104 45.1095L2.79529 45.3354Z" fill="black" fill-opacity="0.93"/>
<path d="M24.9146 44.7491L24.3976 24.5022L31.6363 24.3247L31.6039 22.7275L24.3491 22.905L23.8482 3.62603L32.3634 3.40017L32.3149 1.73846L22.1355 1.99659L23.2989 46.1366V46.4592L33.4944 46.185L33.4459 44.5394L24.9146 44.7491Z" fill="black" fill-opacity="0.93"/>
<path d="M54.5808 1.16132L52.9812 1.19358L53.9183 37.1864L45.484 1.38718L43.949 1.43558L45.1123 45.5756V45.8982L46.7766 45.8498L45.8394 9.92155L54.2738 45.6562L55.7441 45.6078L54.5808 1.48398V1.16132Z" fill="black" fill-opacity="0.93"/>
<path d="M99.9686 42.8009L91.4373 43.0268L90.9041 22.7798L98.159 22.5862L98.1105 20.9891L90.8718 21.1827L90.3548 1.88756L98.8861 1.6617L98.8376 0L88.6582 0.274262L89.8054 44.3981L89.8216 44.7208L100.001 44.4626L99.9686 42.8009Z" fill="black" fill-opacity="0.93"/>
<path d="M72.7744 21.087C69.7206 18.2154 68.3149 15.5211 68.2341 12.3591L68.1048 7.45463C68.0564 5.438 68.3795 4.08283 69.0905 3.30844C69.8014 2.53406 70.6416 2.14686 71.6595 2.1146C72.6936 2.05006 73.6954 2.48566 74.2609 3.14711C74.778 3.74403 75.4081 4.71201 75.4405 5.87359V6.19625L77.1209 6.14785V5.82519C77.0724 4.29256 76.5069 2.98578 75.4566 1.95327C74.3902 0.904619 73.0814 0.420628 71.6272 0.436761C70.1407 0.469027 68.8804 1.04982 67.8786 2.14686C66.9092 3.19551 66.376 4.40549 66.4568 7.4869C66.5375 10.3586 66.586 12.6817 66.586 12.6817C66.683 16.2149 68.3634 19.3124 72.0473 22.7003C75.5859 25.9592 76.0706 30.0247 76.1191 31.638L76.313 38.9786C76.3776 41.2372 75.9575 41.8664 75.3274 42.5762C74.6164 43.3506 73.7762 43.7378 72.7583 43.7701C71.7565 43.8185 70.884 43.4474 70.1407 42.7214C69.3975 41.9793 69.0097 41.092 68.9774 40.0111V39.6884L67.297 39.7368V40.0595C67.3454 41.6405 67.911 42.9634 68.9612 43.9798C69.9791 44.9639 71.2233 45.4641 72.629 45.4641C72.6775 45.4641 72.7421 45.4641 72.7906 45.4641C74.2771 45.4157 75.5374 44.8671 76.5392 43.7862C77.5894 42.673 78.0257 41.1888 77.9772 38.9624L77.7833 31.6219C77.6702 27.4435 76.1837 24.2975 72.7906 21.1032L72.7744 21.087Z" fill="black" fill-opacity="0.93"/>
</svg>
