<?xml version="1.0" encoding="UTF-8"?>
<svg id="Ebene_2" data-name="Ebene 2" xmlns="http://www.w3.org/2000/svg" viewBox="0 0 74.21 56.42">
  <defs>
    <style>
      .cls-1 {
        fill: #fff;
      }
    </style>
  </defs>
  <g id="schwan1">
    <g>
      <path class="cls-1" d="M68.86,45.75c.05.05,3.7,7.68-5.62,6.04-6.82-1.2-14.27-6.24-15.69-10.97s-3.81-8.86-3.81-8.86c0,0,.25,1.38-.46,1.38s-2.6,2.3-2.6,2.3l-3.06,1.99s-2.09,3.7-3.98,2.76-10.57,3.83-10.57,3.83c0,0-19.19,1.44-20.37-.92s2.45-6.28,2.45-6.28c0,0,7.76,1.45,10.72-2.3s12.41-9.04,12.41-9.04c0,0,.7-9.05,3.52-10.26,5.36-2.3,14.4,0,14.4,0l10.42-1.69s9.04-11.03,11.8-12.1,6.2,7.86,3.37,14.09c-1.63,3.58-10.42,9.65-10.42,9.65l-3.37,1.84-2.42.08-3.88,1.63s-.03,8.21,2.34,10.34,1.18,4.73,5.2,4.49,3.55-1.65,5.67-.71,3.97,2.71,3.97,2.71Z"/>
      <path d="M64.79,49.5c1.93,0,1.93-3,0-3s-1.93,3,0,3h0Z"/>
      <path d="M70.64,48.1c-.26-2.26-.85-4.85-3.02-6.03-1.53-.84-3.31-.61-4.93-.2-.93.24-1.96.76-2.92.6-1.38-.23-2.5-1.56-3.4-2.53-2.24-2.4-4.35-5.2-3.98-8.66.09-.81-.75-1.5-1.5-1.5-.88,0-1.41.69-1.5,1.5-.38,3.47,1.34,6.63,3.47,9.22,1.9,2.3,4.49,5.33,7.81,4.95,1.02-.12,2-.5,3-.74.17-.04.35-.08.53-.12.06-.01.62-.1.28-.06.34-.04.68-.06,1.02-.04.38.02-.08-.04.2.03.06.02.56.19.28.07.44.2.45.22.73.56.52.64.82,1.97.93,2.94.09.8.62,1.5,1.5,1.5.74,0,1.59-.69,1.5-1.5h0Z"/>
      <path d="M44.38,34.03c.68,5.05,2.87,9.74,6.39,13.44s9.23,7.39,14.64,5.85c1.85-.53,1.07-3.42-.8-2.89-4.41,1.25-9.08-2.23-11.92-5.29s-4.76-7-5.31-11.11c-.11-.8-.61-1.5-1.5-1.5-.73,0-1.61.69-1.5,1.5h0Z"/>
      <path d="M53.13,29.57c-.34-4.84-.94-10.56-4.96-13.87-4.67-3.85-12.07-3.7-17.45-1.6-1.78.69-1,3.6.8,2.89,2.53-.99,5.18-1.44,7.9-1.28,2.36.14,5.02.72,6.86,2.3,3.21,2.77,3.58,7.62,3.86,11.56.14,1.91,3.14,1.93,3,0h0Z"/>
      <path d="M30.16,13.65c-.32-.17-.62-.35-.92-.55-.16-.1-.31-.21-.46-.32-.04-.03-.28-.21-.09-.07s-.05-.04-.09-.07c-.56-.45-1.07-.95-1.54-1.5-.11-.13-.22-.26-.33-.39-.22-.27.13.18.02.02-.05-.07-.1-.14-.15-.21-.21-.29-.4-.59-.59-.9s-.35-.63-.5-.95c-.04-.09-.09-.19-.13-.28-.08-.18,0,0,.03.08-.05-.19-.15-.38-.22-.57-.26-.74-1.03-1.31-1.85-1.05-.73.23-1.33,1.05-1.05,1.85,1.14,3.18,3.38,5.9,6.36,7.51.69.37,1.67.19,2.05-.54s.2-1.65-.54-2.05h0Z"/>
      <path d="M34.03,12.19s-.08-.1-.12-.15c.14.18.16.21.06.08-.07-.1-.15-.2-.22-.3-.14-.2-.28-.41-.42-.62-.27-.42-.51-.85-.74-1.29-.11-.22-.22-.44-.32-.67-.03-.06-.05-.11-.07-.17.09.22.1.25.04.1-.05-.12-.09-.23-.14-.35-.18-.46-.33-.94-.46-1.42-.2-.76-1.08-1.3-1.85-1.05s-1.27,1.03-1.05,1.85c.6,2.24,1.69,4.29,3.14,6.09.23.28.72.44,1.06.44.37,0,.81-.16,1.06-.44s.46-.66.44-1.06c-.02-.42-.18-.73-.44-1.06h0Z"/>
      <path d="M2.17,45.15c7.22,1.53,14.69,1.44,21.88-.24,3.57-.84,7.05-2.08,10.36-3.68,3.05-1.47,6.59-3.26,8.84-5.87s2.72-6.84-.42-9.04c-1.59-1.11-3.09,1.49-1.51,2.59,1.26.88.86,2.8.14,3.87-1.03,1.56-2.8,2.59-4.36,3.55-3.32,2.05-6.89,3.66-10.63,4.8-7.59,2.33-15.72,2.76-23.5,1.11-1.88-.4-2.69,2.49-.8,2.89h0Z"/>
      <path d="M30.71,18.49c-2.59,1.37-3.78,4.16-3.35,6.99l1.45-1.9c-4.39-.25-8.21,3.41-8.37,7.74l1.5-1.5c-3.83-.15-7.32,2.44-8.37,6.1l1.45-1.1c-1.81,0-3.62.04-5.43.17-1.49.11-3.16.11-4.57.64-1.19.45-2.12,1.35-2.32,2.63-.19,1.19.29,2.44,1.42,2.98l.76-2.8c-2.25-.14-4.29,1.4-4.82,3.58-.46,1.87,2.43,2.67,2.89.8.23-.96.96-1.44,1.93-1.38,1.45.09,2.09-2.16.76-2.8.23.11-.1.21,0,.05.13-.23.64-.33.85-.38.85-.2,1.75-.22,2.61-.29,1.97-.16,3.94-.22,5.92-.21.66,0,1.26-.47,1.45-1.1.7-2.43,2.98-4,5.48-3.9.83.03,1.47-.71,1.5-1.5.11-2.78,2.65-4.9,5.37-4.74,1.07.06,1.58-1,1.45-1.9-.23-1.52.67-2.91,1.97-3.6,1.71-.9.19-3.49-1.51-2.59h0Z"/>
      <path d="M67.62,52.62c.88,1.12,1.76,2.24,2.64,3.37.22.28.72.44,1.06.44.37,0,.81-.16,1.06-.44s.46-.66.44-1.06l-.05-.4c-.07-.25-.2-.47-.39-.66-.88-1.12-1.76-2.24-2.64-3.37-.22-.28-.72-.44-1.06-.44-.37,0-.81.16-1.06.44s-.46.66-.44,1.06l.05.4c.07.25.2.47.39.66h0Z"/>
      <path d="M52.24,30.16c7.45-1.28,14.87-5.38,19.26-11.64,2.15-3.07,3.29-6.82,2.4-10.53-.48-1.98-1.49-3.82-2.56-5.52-1-1.58-2.34-3.15-4.36-2.16-1.73.85-.22,3.44,1.51,2.59-.55.27-.38.14.01.71.25.37.48.75.7,1.13.38.63.74,1.28,1.05,1.95.66,1.43,1.06,2.97.95,4.56-.2,2.98-1.98,5.68-3.98,7.78-4.19,4.41-9.83,7.21-15.79,8.24-1.9.33-1.09,3.22.8,2.89h0Z"/>
      <path d="M68.12.21c-1.78-.49-3.39.78-3.95,2.41s.21,3.28.92,4.68c.35.7,1.4.96,2.05.54.72-.46.92-1.3.54-2.05-.16-.32-.32-.64-.46-.96l.15.36c-.18-.43-.33-.88-.4-1.34l.05.4c-.03-.28-.04-.56,0-.85l-.05.4c.03-.19.08-.36.16-.54l-.15.36c.08-.17.17-.33.29-.49l-.23.3c.12-.15.24-.28.39-.4l-.3.23c.13-.1.26-.18.4-.24l-.36.15c.12-.05.25-.09.38-.11l-.4.05c.13-.02.26-.02.39,0l-.4-.05c.07.01.13.03.2.04.76.21,1.67-.26,1.85-1.05s-.24-1.62-1.05-1.85h0Z"/>
      <path d="M65.54,4.07c-1.52-.58-3.16.37-3.99,1.62s-.74,2.83-.57,4.24c.05.41.13.76.44,1.06.26.26.69.46,1.06.44s.79-.14,1.06-.44c.25-.27.49-.68.44-1.06-.09-.73-.17-1.47-.08-2.2l-.05.4c.04-.31.12-.61.24-.9l-.15.36c.08-.19.19-.37.32-.54l-.23.3c.13-.16.28-.31.44-.44l-.3.23c.16-.12.34-.23.53-.31l-.36.15c.15-.06.3-.1.46-.12l-.4.05c.14-.02.27-.02.41,0l-.4-.05c.12.02.23.05.35.09.34.13.85.03,1.16-.15s.61-.54.69-.9c.09-.38.07-.81-.15-1.16s-.51-.54-.9-.69h0Z"/>
      <path d="M62.53,8.6c-1.63-.53-3.48-.19-4.87.79-.7.49-1.31,1.12-1.73,1.87-.2.35-.36.75-.47,1.13-.1.34-.08.81-.26,1.06l.54-.54c.18-.13.43.09.02-.08-.18-.07-.37-.14-.55-.21-.42-.18-.83-.39-1.26-.55-.83-.31-1.71-.42-2.58-.24-1.61.34-2.92,1.66-3.3,3.24l1.85-1.05c-1.68-.42-3.42-.38-5.07.18-1.82.62-1.04,3.52.8,2.89,1.15-.39,2.29-.48,3.47-.18.77.19,1.65-.24,1.85-1.05.3-1.21,1.36-1.26,2.34-.84,1.42.61,3.46,1.62,4.54-.15.59-.97.36-2.08,1.31-2.88.74-.62,1.68-.82,2.59-.52,1.84.6,2.63-2.29.8-2.89h0Z"/>
    </g>
  </g>
</svg>