<?xml version="1.0" encoding="UTF-8"?>
<svg id="Ebene_2" data-name="Ebene 2" xmlns="http://www.w3.org/2000/svg" viewBox="0 0 70.58 65.15">
  <defs>
    <style>
      .cls-1 {
        fill: #fff;
      }
    </style>
  </defs>
  <g id="schwan2">
    <g>
      <path class="cls-1" d="M64.67,50.09s4.11,7.64-4.41,8.81-17.74-7.75-19.5-13.63-1.65-10.46-1.65-10.46c0,0-8.23-1.18-9.11-1.18s-3.4-1.6-3.4-1.6l-2.96-.93s.79-.38-1.56-1.56-4.05,7.01-4.05,7.01c0,0-12.7,13.52-14.17,10.59s-.62-6.69-.62-6.69c0,0-1.82-2.06-.93-7.94s5.76-10.43,5.76-10.43c0,0,6.77-7.32,10.59-7.32s10.76-3.75,10.76-3.75h4.99S47.04,1.07,50.57,1.37s16.04,8.34,18.68,12.45-12.3,1.25-12.3,1.25l-3.89,7.63-2.34,5.76-4.83,2.02s-.03,10.2,2.9,12.85,1.47,5.88,6.46,5.58,4.41-2.06,7.05-.88,2.35,2.06,2.35,2.06Z"/>
      <path d="M60.79,55.85c1.93,0,1.93-3,0-3s-1.93,3,0,3h0Z"/>
      <path d="M67.66,54.97c-.06-2.68-.56-5.86-3.03-7.42-1.73-1.09-3.81-.95-5.74-.65-1.25.2-2.64.74-3.89.36-1.7-.53-2.93-2.2-3.98-3.54-2.46-3.16-4.95-7.04-4.11-11.23.38-1.89-2.51-2.69-2.89-.8-.87,4.32.76,8.42,3.22,11.93,1.97,2.81,4.54,6.56,8.33,6.76,1.43.08,2.87-.41,4.28-.61.42-.06,1.65-.13,2.06-.07.81.13,1.33.39,1.82,1.08.82,1.17.89,2.81.92,4.18.05,1.93,3.05,1.93,3,0h0Z"/>
      <path d="M37.45,34.92c.27,6.29,2.59,12.28,6.52,17.2s10.34,9.76,17.05,8.5c1.9-.36,1.09-3.25-.8-2.89-5.61,1.05-11.2-3.89-14.35-8.01s-5.19-9.45-5.41-14.79c-.08-1.92-3.08-1.93-3,0h0Z"/>
      <path d="M47.11,31.02c-.42-5.92-1.14-12.95-6.06-16.99-5.71-4.69-14.78-4.45-21.33-1.89-1.78.7-1,3.6.8,2.89,3.07-1.2,6.29-1.78,9.59-1.62,3.12.15,6.67.86,9.09,2.97,4.07,3.54,4.56,9.62,4.91,14.64.14,1.91,3.14,1.93,3,0h0Z"/>
      <path d="M18.74,11.54c-.39-.21-.78-.44-1.15-.69-.19-.13-.39-.26-.57-.4-.03-.02-.31-.23-.15-.11s-.12-.1-.15-.12c-.69-.56-1.33-1.19-1.92-1.86-.14-.16-.27-.32-.41-.49-.25-.32.1.14-.04-.05-.06-.09-.13-.17-.19-.26-.26-.36-.5-.74-.73-1.12s-.44-.78-.63-1.18c-.05-.12-.11-.23-.16-.35-.06-.14-.05-.12,0,0-.1-.24-.19-.47-.27-.71-.26-.74-1.03-1.31-1.85-1.05-.73.23-1.33,1.05-1.05,1.85,1.38,3.86,4.12,7.16,7.74,9.12.69.37,1.67.19,2.05-.54s.2-1.65-.54-2.05h0Z"/>
      <path d="M23.48,9.68c-.05-.06-.1-.12-.14-.18.12.15.12.16.02.03-.09-.12-.18-.25-.27-.37-.18-.25-.35-.51-.52-.76-.33-.52-.64-1.05-.92-1.6-.14-.27-.27-.55-.4-.83-.03-.07-.06-.14-.09-.21.08.18.08.19.02.04-.06-.14-.11-.29-.17-.43-.22-.58-.41-1.16-.57-1.76-.2-.76-1.08-1.3-1.85-1.05s-1.27,1.03-1.05,1.85c.73,2.72,2.05,5.22,3.81,7.41.49.61,1.61.55,2.12,0,.6-.65.53-1.47,0-2.12h0Z"/>
      <path d="M63.9,59.94l2.88,4.46c.43.66,1.35.99,2.05.54.66-.42.99-1.35.54-2.05l-2.88-4.46c-.43-.66-1.35-.99-2.05-.54-.66.42-.99,1.35-.54,2.05h0Z"/>
      <path d="M51.13,2.78c5.41,2.92,10.89,6.03,15.12,10.57.31.33.69.78.85,1,.12.17.23.34.33.52.05.09.09.17.14.26.14.28-.09-.27,0,.03.07.19.02.43.04.02-.01.31,0,.12.03-.01-.03.15-.14.18.07-.15-.07.12-.08.05.13-.15-.25.24.31-.18,0,.01-.29.18.22,0,0,0-.11,0-.31.07-.42.1-.2.06.3,0-.09,0-.18,0-.36.02-.54.02-.36,0-.72-.02-1.08-.06-.1,0-.58-.07-.45-.05.19.03-.09-.01-.13-.02-.14-.02-.27-.04-.41-.07-1.81-.31-3.59-.79-5.32-1.4-.76-.27-1.64.3-1.85,1.05-.23.83.28,1.58,1.05,1.85,1.71.6,3.47,1.08,5.25,1.39,1.66.29,3.78.67,5.36-.15,1.86-.97,1.57-3.08.56-4.58-1.81-2.67-4.56-4.81-7.13-6.7-3.15-2.31-6.57-4.22-10-6.08-1.7-.92-3.22,1.67-1.51,2.59h0Z"/>
      <path d="M46.15,31.2c3.18-.14,6.02-1.35,7.5-4.3s1.67-6.01,2.91-8.89c.15-.34.32-.68.5-1.01.1-.17.2-.34.31-.51.04-.07.09-.13.14-.2-.09.12,0,0,.05-.04.06-.07.13-.13.19-.19-.1.09-.1.11,0,0,.11-.12.02-.03.02-.02-.01.06.02,0-.07.02-.11.01-.18-.02-.28-.02.23,0-.03-.03-.04-.03.07-.03.12.16.06.04-.05-.1.14.16.18.2,1.3,1.43,3.42-.69,2.12-2.12-1.21-1.33-3.01-1.33-4.25-.05s-1.87,3.1-2.4,4.74c-.51,1.55-.84,3.15-1.32,4.7-.1.34-.22.68-.34,1.01-.16.44-.16.43-.33.78-.13.26-.27.52-.43.77-.09.14-.18.28-.28.41.14-.19-.12.13-.17.19-.13.14-.27.27-.41.39-.22.2-.02.04-.21.16-.17.11-.33.21-.51.31s-.24.13-.28.14c-.86.35-1.74.47-2.66.51-1.92.09-1.93,3.09,0,3h0Z"/>
      <path d="M37.3,32.46c-5.01.73-10.32-.91-14.11-4.25-1.44-1.27-3.57.84-2.12,2.12,4.67,4.12,10.88,5.91,17.03,5.02.8-.12,1.24-1.13,1.05-1.85-.24-.86-1.04-1.16-1.85-1.05h0Z"/>
      <path d="M34.44,25.24c-2.8-2.1-4.81-5.11-7.64-7.23-1.7-1.27-3.7-2.01-5.69-2.73-1.17-.42-2.36-.81-3.59-1.02-1.33-.22-2.59-.22-3.79.45-.34.19-.06.05,0,.03-.78.31-1.58.57-2.3,1.01-1.22.76-2.08,1.96-3.09,2.96-1.37,1.36.75,3.48,2.12,2.12.83-.83,1.58-1.93,2.59-2.55.69-.43,1.49-.61,2.21-.98.15-.08.58-.21.08-.06.18-.05.35-.11.54-.14-.44.09.32.01.5.02.3.01.46.04.92.14,3,.64,6.24,1.84,8.58,3.82,2.49,2.1,4.44,4.79,7.06,6.75,1.54,1.16,3.04-1.44,1.51-2.59h0Z"/>
      <path d="M19.65,28.19c-.97,2.64-1.89,5.24-3.33,7.67-1.56,2.63-3.57,4.95-6,6.82-1.08.83-2.28,1.62-3.54,2.14-.87.36-2.48.9-3.37.36s-.24-1.92.23-2.49c.98-1.21,2.47-1.96,3.62-2.99,1.44-1.29-.69-3.41-2.12-2.12C2.97,39.52.22,40.83,0,44.09c-.09,1.42.53,2.85,1.76,3.61s2.88.75,4.28.47c2.63-.51,5.01-2.2,7.03-3.89,2.33-1.95,4.28-4.3,5.83-6.91s2.58-5.51,3.63-8.39c.67-1.82-2.23-2.6-2.89-.8h0Z"/>
      <path d="M3.89,33.07c-.32-.37-.4-.85-.37-1.4s.27-1.21.64-1.73c.92-1.29,2.47-2.05,3.82-2.78,1.18-.63.83-2.37-.36-2.74.06.02-.04,0-.12-.11.12.18-.02-.23,0-.03-.04-.23-.09-.35,0-.55.12-.28.35-.51.6-.7.18-.13.38-.24.58-.34.18-.06.24-.08.17-.08.33-.09.2-.14-.39-.15l-.54-.54.07.11-.2-.76v-.15c.14-.22.27-.44.4-.66l-.08.09.66-.39-.1.04h.8l-.1-.04c-.76-.28-1.64.32-1.85,1.05-.23.84.29,1.56,1.05,1.85,1.96.73,3.03-2.32,1.28-3.27-1.29-.7-2.97.33-3.94,1.18s-1.54,2.05-1.43,3.31c.12,1.41.97,2.61,2.34,3.03l-.36-2.74c-1.96,1.06-4.1,2.28-5.18,4.33s-1.06,4.51.48,6.3c.53.61,1.58.54,2.12,0,.61-.61.53-1.51,0-2.12h0Z"/>
      <path d="M37.19,11.83s.1-.19.1-.19c0,0-.19.28,0,.02.11-.14-.2.12-.05.03.06-.04.12-.08.19-.12.14-.09.29-.16.44-.23.07-.03.14-.06.2-.1.16-.08.04-.04-.05.02.27-.15.62-.23.92-.31.16-.05.33-.09.5-.12.07-.02.15-.03.22-.04.05,0,.37-.05.14-.03-.22.03.04,0,.08,0,.07,0,.15-.01.22-.02.17,0,.33-.01.5,0,.15,0,.29.01.44.03.23.02-.03.03-.07-.01.03.03.21.04.27.05.14.03.28.07.42.11.06.02.2.04.25.09-.05-.05-.25-.12-.06-.02.13.07.25.13.38.21.08.05.15.1.22.15.17.11-.27-.23,0,0,.59.51,1.55.63,2.12,0,.52-.56.63-1.57,0-2.12-1.45-1.26-3.28-1.66-5.16-1.41-.93.12-1.78.38-2.64.75s-1.75.88-2.18,1.76c-.34.7-.22,1.65.54,2.05.67.36,1.69.22,2.05-.54h0Z"/>
      <path d="M41.37,8.51c.02-.07.04-.14.06-.21.05-.21.03.02-.04.06.08-.05.15-.29.2-.37.02-.03.12-.14.12-.17,0,.06-.19.22-.03.06.1-.1.2-.21.3-.3.03-.02.16-.11.16-.14-.01.06-.23.16-.04.04.12-.08.24-.16.37-.23.06-.03.13-.07.2-.1.22-.11-.04.04-.06.02.01.01.44-.15.47-.16.14-.04.29-.06.42-.1.18-.05-.22.01.02,0,.1,0,.19-.02.29-.02.39-.02.78-.01,1.17.02.1,0,.2.02.29.03.25.02-.2-.04.04,0,.19.04.39.06.58.1.41.08.82.17,1.23.26.76.17,1.66-.23,1.85-1.05.17-.76-.23-1.66-1.05-1.85-1.9-.42-3.96-.85-5.86-.23-1.67.55-3.14,1.77-3.6,3.52-.2.76.25,1.66,1.05,1.85s1.63-.24,1.85-1.05h0Z"/>
      <path d="M52.71.73c-1.67-.82-3.61-.84-5.25.06-1.36.75-2.41,2.16-2.71,3.68-.15.77.22,1.66,1.05,1.85.74.17,1.68-.22,1.85-1.05.03-.14.06-.28.1-.41.02-.05.03-.11.05-.16.01-.04.12-.3.02-.06s.01-.02.03-.05c.03-.05.05-.1.08-.15.07-.12.15-.24.22-.36.14-.22-.17.2-.06.07.04-.04.07-.09.11-.13.09-.11.19-.21.29-.3.05-.05.11-.09.16-.14.15-.13-.06.06-.1.08.12-.04.24-.17.35-.23.05-.03.1-.06.15-.08.03-.02.3-.13.07-.04s.06-.02.09-.03c.06-.02.12-.04.18-.06.07-.02.43-.06.46-.11-.02.03-.35.03-.12.02.08,0,.16-.01.24-.02.16,0,.32,0,.48,0,.13,0,.28.09-.07-.02.06.02.13.02.19.03.16.03.31.07.46.12.06.02.12.06.18.06-.2-.09-.24-.11-.14-.06.04.02.09.04.13.06.7.35,1.66.21,2.05-.54.36-.68.21-1.68-.54-2.05h0Z"/>
      <path d="M6.68,30.61c-2.32,1.22-4.75,2.66-5.76,5.22-.89,2.26-.31,5.18,1.88,6.46.68.4,1.67.18,2.05-.54s.19-1.63-.54-2.05c-.1-.06-.19-.12-.29-.18.15.11.13.11,0-.02-.03-.03-.27-.31-.14-.14s-.05-.08-.07-.12c-.06-.09-.1-.19-.16-.29.09.16.06.18,0,0-.06-.2-.1-.4-.15-.6.09.34,0,.05,0-.06,0-.1,0-.19,0-.29s0-.19,0-.29c0-.09.08-.43,0-.07.05-.21.08-.42.15-.63.03-.09.07-.18.09-.28-.09.32,0,.01.04-.07.09-.19.2-.37.32-.54.03-.05.27-.34.1-.14.09-.11.18-.21.28-.31.16-.17.33-.33.5-.49.11-.09.21-.18.32-.27-.2.16.1-.08.15-.11.85-.61,1.78-1.11,2.71-1.59.7-.36.96-1.39.54-2.05-.46-.71-1.31-.93-2.05-.54h0Z"/>
    </g>
  </g>
</svg>