<?xml version="1.0" encoding="UTF-8"?>
<svg id="Ebene_2" data-name="Ebene 2" xmlns="http://www.w3.org/2000/svg" viewBox="0 0 70.25 65.69">
  <defs>
    <style>
      .cls-1 {
        fill: #fff;
      }
    </style>
  </defs>
  <g id="schwan4">
    <g>
      <path class="cls-1" d="M62.08,39.76s7.61,5.36.2,9.72c-7.42,4.36-14.81,3.36-18.69-1.39s-10.97-12.62-10.97-12.62c0,0-7.42,11.79-8.24,12.13s-7.92,9.81-7.92,9.81l-6.41,4.9s-4.17,1.13-6.79.94,1.51-10.18,1.51-10.18c0,0,2.09-6.04,3.03-9.19.75-2.51,1.5-6.09,1.5-6.09,0,0-3.08,1.62-4.53-4.15-1.44-5.76,4.34-3.21,4.34-3.21,0,0,1.19-11.92,4.71-13.39s.71.17.71.17l-2.03-5.64s13.04-1.37,16.41-2.45,3.9-2.41,7.92.38,3.09,4.48,3.09,4.48l3.51,9.86-.38,8.11-.75,1.7s-1.65,3.97,2.07,5.28,4.09,5.55,8.58,3.37c4.5-2.19,3.28-3.59,6.17-3.52s2.96,1,2.96,1Z"/>
      <path d="M59.24,47.41c1.93,0,1.93-3,0-3s-1.93,3,0,3h0Z"/>
      <path d="M66.02,44.67c-.78-2.58-2.12-5.56-4.96-6.36-1.94-.55-3.86.12-5.62.91-1.18.54-2.44,1.47-3.77,1.38-1.87-.12-3.57-1.52-5.01-2.6-3.09-2.33-6.32-5.36-6.61-9.47-.14-1.91-3.14-1.93-3,0,.29,4.02,2.54,7.36,5.5,9.97,2.66,2.35,6.31,5.55,10.13,5.04,2.32-.31,4.15-2.17,6.49-2.43s3.39,2.43,3.97,4.35,3.46,1.06,2.89-.8h0Z"/>
      <path d="M31.56,33.4c1.91,5.92,5.69,11.04,10.7,14.72,5.17,3.8,12.67,6.8,18.85,3.77,1.73-.85.21-3.44-1.51-2.59-5.19,2.54-11.94-.8-16.12-3.99s-7.4-7.69-9.02-12.71c-.59-1.83-3.49-1.05-2.89.8h0Z"/>
      <path d="M40.02,28.54c-.42-5.92-1.14-12.95-6.06-16.99-5.71-4.69-14.78-4.45-21.33-1.89-1.78.7-1,3.6.8,2.89,3.07-1.2,6.29-1.78,9.59-1.62,3.12.15,6.67.86,9.09,2.97,4.07,3.54,4.56,9.62,4.91,14.64.14,1.91,3.14,1.93,3,0h0Z"/>
      <path d="M11.65,9.06c-.39-.21-.78-.44-1.15-.69-.19-.13-.39-.26-.57-.4-.03-.02-.31-.23-.15-.11s-.12-.1-.15-.12c-.69-.56-1.33-1.19-1.92-1.86-.14-.16-.27-.32-.41-.49-.25-.32.1.14-.04-.05-.06-.09-.13-.17-.19-.26-.26-.36-.5-.74-.73-1.12s-.44-.78-.63-1.18c-.05-.12-.11-.23-.16-.35-.06-.14-.05-.12,0,0-.1-.24-.19-.47-.27-.71-.26-.74-1.03-1.31-1.85-1.05-.73.23-1.33,1.05-1.05,1.85,1.38,3.86,4.12,7.16,7.74,9.12.69.37,1.67.19,2.05-.54s.2-1.65-.54-2.05h0Z"/>
      <path d="M16.39,7.2c-.05-.06-.1-.12-.14-.18.12.15.12.16.02.03-.09-.12-.18-.25-.27-.37-.18-.25-.35-.51-.52-.76-.33-.52-.64-1.05-.92-1.6-.14-.27-.27-.55-.4-.83-.03-.07-.06-.14-.09-.21.08.18.08.19.02.04-.06-.14-.11-.29-.17-.43-.22-.58-.41-1.16-.57-1.76-.2-.76-1.08-1.3-1.85-1.05s-1.27,1.03-1.05,1.85c.73,2.72,2.05,5.22,3.81,7.41.49.61,1.61.55,2.12,0,.6-.65.53-1.47,0-2.12h0Z"/>
      <path d="M63.71,50.46c1.32,1.18,2.65,2.36,3.97,3.53.3.27.65.44,1.06.44.37,0,.81-.16,1.06-.44s.46-.66.44-1.06-.14-.8-.44-1.06l-3.97-3.53c-.3-.27-.65-.44-1.06-.44-.37,0-.81.16-1.06.44s-.46.66-.44,1.06.14.8.44,1.06h0Z"/>
      <path d="M29.04,26.21c2.05,1.52.77,5.28.14,7.16-1.4,4.14-3.65,8.01-5.9,11.73-1.25,2.07-2.55,4.11-3.87,6.14s-2.77,3.63-4.57,5.21c-2.64,2.33-5.05,4.22-8.42,5.47-.73.27-1.49.53-2.26.67-.29.05-.58.08-.88.08-.2,0-.24-.05-.26-.04-.02,0,.14.41.12.09-.01-.2-.12-.4-.14-.61-.03-.4.05-.82.2-1.19.32-.77,1.03-1.56,1.89-1.67,1.41-.18,2.13-1.94.76-2.8.22.13-.04-.14.05.04.1.2-.08-.19-.08-.25-.03-.31-.07-.67-.05-1.03.04-1.04.3-2.06.61-3.05.44-1.41,1.26-3.79,2.51-4.38,1-.48.96-2.1,0-2.59-1.65-.84,1.54-2.68,2.09-2.98,1.25-.68.75-2.29-.36-2.74.14.06-.18-.68-.23-.86-.14-.46-.27-.91-.48-1.35-.64-1.35-1.5-1.54-2.81-1.99-.84-.28-.83-1.33-.39-2.02.74-1.16,2.38-1.59,3.6-1.99.96-.31,1.6-1.76.66-2.51-1.77-1.4-1.49-4.42,1.08-4.66,1.43-.14,2.11-1.98.76-2.8-.8-.48-.25-1.49.27-1.95.77-.67,1.84-.99,2.85-1.03,2.01-.07,3.79.83,5.02,2.41s3.29-.61,2.12-2.12c-2.16-2.78-6.19-4.02-9.53-2.87-1.76.61-3.4,1.81-3.96,3.66-.51,1.72.2,3.57,1.72,4.49l.76-2.8c-2.28.22-4.28,1.56-5.03,3.79s.08,4.61,1.83,6l.66-2.51c-1.88.61-3.83,1.33-5.08,2.94-1.08,1.39-1.34,3.41-.52,5,.38.73.97,1.32,1.74,1.65.71.31,1.35.06,1.65.82.62,1.56.81,2.88,2.52,3.58l-.36-2.74c-1.61.88-3.37,2.01-3.82,3.92-.38,1.63.19,3.45,1.74,4.24v-2.59c-2.28,1.09-3.42,4.47-4.05,6.71s-1.31,5.7,1.01,7.14l.76-2.8c-2.4.32-4.31,1.94-4.92,4.31-.47,1.8-.06,4.3,1.95,4.93,1.63.52,3.55-.1,5.09-.68,1.79-.67,3.56-1.5,5.17-2.53,2.12-1.35,4.06-3.18,5.88-4.91,2.11-2.01,3.6-4.4,5.16-6.84,3.07-4.81,6.1-9.76,8.18-15.1,1.47-3.78,2.78-8.99-1.05-11.82-1.55-1.15-3.05,1.46-1.51,2.59h0Z"/>
      <path d="M28.29,37.8c.54,1.94,1.08,3.88,1.62,5.82.48,1.74.83,3.56,2.45,4.62.15.1.3.18.46.27.2.12.23.23.11-.03s-.08-.21-.1.03c-.01.19-.01.37,0,.56.1,1.04.85,1.89,1.88,2.08,1.79.33,3.34-.89,4.29-2.28,1.18-1.71,1.82-3.76,1.86-5.84.03-1.93-2.97-1.93-3,0-.03,1.62-.61,3.4-1.7,4.67.12-.14-.31.28-.15.15.08-.05.04-.03-.1.07-.09.06-.18.11-.27.16-.46.25.23-.14-.22.09-.18.04-.2.05-.03.03-.16,0-.18,0-.07.02.23.12.63.27.49.69.03-.1.02-.37.02-.48.02-.54-.08-1.06-.38-1.51s-.74-.76-1.2-1.04c-.2-.12-.49-.3-.55-.37-.26-.31-.28-.49-.4-.88-.15-.48-.27-.97-.41-1.46-.57-2.05-1.14-4.11-1.71-6.16-.52-1.86-3.41-1.07-2.89.8h0Z"/>
      <path d="M38.86,46.77c.56-1.36.57-2.92.04-4.29-.24-.63-.74-1.1-1.45-1.1-.63,0-1.31.46-1.45,1.1-.28,1.28-.56,2.55-.85,3.83-.16.73.16,1.48.87,1.77.62.25,1.58.08,1.87-.61,1.32-3.07.46-6.42-2.07-8.61-.82-.71-2.22-.5-2.51.66-.64,2.62-.31,5.22.82,7.65.59,1.26,2.36.75,2.74-.36,1.45-4.2.25-8.64-2.54-11.99-.57-.69-1.99-.54-2.36.3-1.66,3.78-1.33,8,1,11.44.76,1.13,2.27.85,2.74-.36,1.85-4.71.65-9.83-2.43-13.71-.77-.97-2.15-.27-2.51.66-1.51,3.95-.71,8.43,1.82,11.78.82,1.08,2.24.89,2.74-.36,1.53-3.75.81-8.07-1.59-11.3-.68-.91-1.93-1.01-2.59,0-1.87,2.86-1.39,6.4.8,8.93.55.64,1.55.51,2.12,0,2.14-1.92,2.76-5.12,1.14-7.58-1.06-1.6-3.66-.1-2.59,1.51.27.4.41.68.5,1.14.03.17.04.66.02.78-.12.82-.55,1.45-1.19,2.03h2.12c-1.36-1.57-1.44-3.6-.33-5.3h-2.59c1.98,2.67,2.55,5.87,1.28,8.98l2.74-.36c-2.1-2.79-2.78-6.17-1.52-9.47l-2.51.66c2.45,3.09,3.1,7.13,1.66,10.79l2.74-.36c-1.68-2.48-2.23-5.61-1-8.42l-2.36.3c2.13,2.55,2.85,5.92,1.77,9.07l2.74-.36c-.78-1.67-.95-3.55-.52-5.33l-2.51.66c.78.68,1.41,1.49,1.69,2.46.24.83.24,1.73-.09,2.52l2.74,1.16c.28-1.28.56-2.55.85-3.83h-2.89c.37.95.35,1.75-.04,2.69-.31.75.33,1.65,1.05,1.85.86.24,1.54-.29,1.85-1.05h0Z"/>
      <path d="M43.53,34.7c1.05-6.84,1.84-14.24-1.35-20.66-.9-1.81-2.32-3.24-3.88-4.5-1.68-1.36-3.63-2.73-5.8-3.18-2.6-.53-4.67.77-5.35,3.33-.5,1.87,2.39,2.66,2.89.8.2-.77.52-1.21,1.01-1.27.84-.1,1.76.33,2.5.71,1.92,1,3.74,2.45,5.13,4.12,1.76,2.13,2.5,5.79,2.7,8.66.26,3.74-.18,7.49-.75,11.18-.29,1.89,2.6,2.7,2.89.8h0Z"/>
    </g>
  </g>
</svg>