<?xml version="1.0" encoding="UTF-8"?>
<svg id="Ebene_2" data-name="Ebene 2" xmlns="http://www.w3.org/2000/svg" viewBox="0 0 60.47 72.67">
  <defs>
    <style>
      .cls-1 {
        fill: #fff;
      }
    </style>
  </defs>
  <g id="schwan3">
    <g>
      <path class="cls-1" d="M57.05,57.03s4.11,7.64-4.41,8.81-14.1-2.35-15.87-8.23-5.29-15.87-5.29-15.87c0,0-8.23-1.18-9.11-1.18s-4.41-3.23-4.41-3.23l-.59,6.76s-1.76,2.94-4.11,1.76-4.11-5.58-4.11-5.58c0,0-2.35,2.64-3.82-.29s0-5.29,0-5.29c0,0-4.41,2.94-3.53-2.94S6.52,13.84,6.52,13.84c0,0,.59-1.18,4.41-1.18s10.87,5.29,10.87,5.29h4.99S29.73,1.2,33.25,1.5s7.35,1.47,9.99,5.58,3.23,17.63,3.23,17.63l-2.35,2.06-3.82-5.88-2.64,11.17s.59,15.57,3.53,18.22,1.47,5.88,6.46,5.58,4.41-2.06,7.05-.88,2.35,2.06,2.35,2.06Z"/>
      <path d="M52.22,62.97c1.93,0,1.93-3,0-3s-1.93,3,0,3h0Z"/>
      <path d="M59.05,62.39c.09-2.71-.28-5.9-2.71-7.57-1.59-1.09-3.61-1.11-5.45-.92-1.33.14-2.84.64-4.13.12-1.64-.67-2.8-2.44-3.74-3.85-1.15-1.72-2.05-3.5-2.51-5.52s-.66-4.17-.8-6.28c-.13-1.92-3.13-1.93-3,0,.27,4.13.74,8.28,2.85,11.93,1.71,2.95,4.19,6.65,7.92,6.92,2.03.15,4.37-.77,6.26-.29,2.26.57,2.38,3.36,2.31,5.46-.06,1.93,2.94,1.93,3,0h0Z"/>
      <path d="M30.03,40.82c-.09,6.24,1.89,12.49,5.57,17.53s9.57,10.27,16.17,9.42c1.89-.24,1.91-3.25,0-3-5.77.75-10.98-4.15-14.02-8.56s-4.8-9.89-4.72-15.39c.03-1.93-2.97-1.93-3,0h0Z"/>
      <path d="M39.59,37.2c-.3-4.21-1.01-8.49-2.99-12.27-1.8-3.43-4.72-6.03-8.38-7.33-2.43-.86-5.06-1.1-7.62-1.03-1.93.06-1.93,3.06,0,3,4.58-.13,9.22.99,12.11,4.8s3.57,8.42,3.88,12.83c.13,1.92,3.14,1.93,3,0h0Z"/>
      <path d="M7.44,15.16c-.47-.41-.92-.85-1.34-1.31-.21-.23-.41-.47-.61-.72-.22-.27.13.18.01.02-.05-.07-.1-.14-.16-.21-.09-.13-.18-.25-.27-.38-.35-.52-.68-1.05-.96-1.61-.14-.28-.28-.56-.41-.85-.02-.04-.11-.26-.03-.06.09.22-.02-.06-.04-.11-.06-.16-.12-.33-.18-.49-.26-.74-1.03-1.31-1.85-1.05-.73.23-1.33,1.05-1.05,1.85.97,2.7,2.59,5.15,4.76,7.04.59.52,1.55.62,2.12,0,.52-.57.63-1.57,0-2.12h0Z"/>
      <path d="M55.05,67.31c.87,1.54,1.75,3.08,2.62,4.62.39.68,1.38.97,2.05.54s.95-1.32.54-2.05c-.87-1.54-1.75-3.08-2.62-4.62-.39-.68-1.38-.97-2.05-.54s-.95,1.32-.54,2.05h0Z"/>
      <path d="M28.22,18.19c.86-4.07,1.19-8.36,2.5-12.33.34-1.02.84-2.26,1.77-2.74s2.45,0,3.52.48c1.45.66,2.71,1.23,3.92,2.31,1.72,1.53,3.12,3.41,4.04,5.52s1.29,4.37,1.29,6.67c0,1.35-.02,2.7-.11,4.04-.04.57-.08,1.14-.15,1.7-.06.48-.32,1.07-.33,1.55,0,.67.07-.32.25.02.02.05-.45-.13-.53-.19-.52-.36-.9-1-1.22-1.53-.55-.93-.96-1.84-1.28-2.85-.59-1.83-3.49-1.05-2.89.8.82,2.54,2.57,6.71,5.75,6.78,2.56.05,3.01-2.54,3.26-4.55.38-3.1.5-6.43-.04-9.52-.47-2.68-1.57-5.29-3.16-7.49-1.43-1.98-3.35-4.06-5.6-5.11-3.25-1.51-7.3-3.19-9.91.31-1.3,1.74-1.82,3.99-2.25,6.08-.64,3.07-1.07,6.18-1.71,9.24-.4,1.88,2.5,2.69,2.89.8h0Z"/>
      <path d="M39.17,30.03c1.23-3.18,1.9-6.45,2.35-9.82.21-1.54.4-3.06.43-4.61,0-.23,0-.45,0-.68,0-.09.02-.18.01-.27-.01-.22.02.07-.02.13.03-.04.03-.14.04-.19.04-.16-.17.37-.05.14-.07.13-.43.37-.16.22,1.7-.91.19-3.5-1.51-2.59-.91.48-1.24,1.35-1.3,2.33-.08,1.32-.07,2.63-.24,3.95-.46,3.63-1.13,7.16-2.45,10.58-.29.76.32,1.65,1.05,1.85.85.23,1.55-.29,1.85-1.05h0Z"/>
      <path d="M30.5,39.34c-1.03.16-2.05.3-3.12.35-.46.02-.92.03-1.38.01-.2,0-.41-.02-.61-.04-.14-.01-.28-.03-.06,0-.11-.02-.22-.03-.32-.05-.83-.15-1.64-.4-2.42-.73.15.06,0,0-.06-.03-.12-.05-.24-.11-.36-.16-.23-.11-.45-.22-.68-.33-.57-.28-1.12-.58-1.68-.89-1.69-.93-3.21,1.66-1.51,2.59,1.89,1.04,3.89,2.11,6.05,2.46,2.33.38,4.65.06,6.96-.29.8-.12,1.24-1.13,1.05-1.85-.24-.86-1.04-1.17-1.85-1.05h0Z"/>
      <path d="M4.26,16.79c-1.31,4.02-2.81,8.03-3.93,12.12-.5,1.84-.57,3.94.81,5.42,1.14,1.22,3.1,1.73,4.54.75,1.59-1.08.09-3.68-1.51-2.59-.55.37-1.1-.4-1.18-.97-.21-1.46.65-3.15,1.09-4.51l3.07-9.41c.6-1.84-2.3-2.63-2.89-.8h0Z"/>
      <path d="M5.01,30.64c-.44,1.35-.88,2.7-1.32,4.04s-.82,2.81-.52,4.27c.51,2.5,3.75,4.11,5.77,2.21.57-.54.58-1.58,0-2.12-.61-.56-1.51-.57-2.12,0-.2.19.16-.1.01,0-.17.1.27-.11.08-.03-.32.13.05-.02.05.01,0,0-.2,0-.21,0,0-.04.32.09.04,0-.08-.03-.17-.06-.26-.08.11.03.21.11.06.01-.08-.05-.16-.11-.24-.15-.15-.08.21.22,0-.01-.05-.05-.1-.11-.15-.16.13.13.11.15,0-.01-.02-.03-.15-.25-.05-.07.11.22-.13-.54-.1-.31-.04-.26-.02-.54,0-.81,0-.05.04-.25.01-.09.02-.14.05-.27.08-.41.06-.24.12-.49.19-.73.15-.5.32-1,.48-1.49l1.07-3.27c.24-.75-.28-1.67-1.05-1.85-.82-.19-1.58.25-1.85,1.05h0Z"/>
      <path d="M8.62,37.11c-.61,2.94-.92,6.2,1.3,8.56,1.99,2.12,5.12,2,7.14,0,2.22-2.19,2.21-5.44,2.33-8.33.13-3.37.27-6.73.4-10.1.08-1.93-2.92-1.93-3,0-.1,2.52-.2,5.05-.3,7.57-.09,2.34.12,4.97-.63,7.21-.48,1.43-2.06,3-3.54,1.81-1.73-1.4-1.21-4.04-.82-5.92s-2.5-2.69-2.89-.8h0Z"/>
      <path d="M30.17,34.11c.33-7.43-4.49-13.81-9.82-18.46-2.69-2.35-6.06-4.88-9.85-4.47-3.33.36-5.53,2.42-6.59,5.48-.63,1.83,2.27,2.61,2.89.8.79-2.3,2.81-3.69,5.32-3.26,2.92.5,5.43,2.87,7.49,4.83,4.17,3.96,7.83,9.08,7.56,15.08-.09,1.93,2.91,1.93,3,0h0Z"/>
      <path d="M8.24,7.42c-.11,1.3-.03,2.59.16,3.87.05.35.4.73.69.9.32.19.8.27,1.16.15s.71-.34.9-.69l.15-.36c.07-.27.07-.53,0-.8-.01-.09-.03-.18-.04-.27l.05.4c-.14-1.06-.16-2.14-.07-3.21.03-.36-.19-.81-.44-1.06s-.69-.46-1.06-.44-.79.14-1.06.44-.4.64-.44,1.06h0Z"/>
    </g>
  </g>
</svg>